# xmcd CD database file
#
# Track frame offsets:
#	150
#	8184
#	18917
#	31877
#	42879
#	54404
#	59047
#	73946
#	84426
#	93525
#	104644
#	116211
#	127630
#	138052
#	151251
#	163647
#
# Disc length: 2395 seconds
#
# Revision: 0
# Processed by: cddbd v1.5.2PL0 Copyright (c) Steve Scherf et al.
# Submitted via: CDex 1.70beta2
#
DISCID=ce095910
DTITLE=Various Artist - Country Legends - Railroad Bill
DYEAR=2005
DGENRE=Country
TTITLE0=Roly Poly - Jim Reeves
TTITLE1=Go Away - Willy Nelson
TTITLE2=Silver Haired Daddy of Mine - Gene Autry
TTITLE3=Big Town - Conway Twitty
TTITLE4=Shutters and Boards - Charley Pride
TTITLE5=Railroad Bill - Anne Murray
TTITLE6=I'll Never Be Free - Billie Jo Spears
TTITLE7=Corine Corina/ Jimmie C Newman
TTITLE8=Honky Tonk Song - Webb Pierce
TTITLE9=A Stranger In My Arms - Patsy Cline
TTITLE10=She's About A Mover - Freddy Fender
TTITLE11=Mule Train - Frankie Laine
TTITLE12=Somebody Somewhere - Loretta Lynn
TTITLE13=Goodnight Irene - Jerry Lee Lewis
TTITLE14=Lovesick Blues - Hank Williams
TTITLE15=Lay It Down - Tino Furner
EXTD=YEAR: 2005
EXTT0=
EXTT1=
EXTT2=
EXTT3=
EXTT4=
EXTT5=
EXTT6=
EXTT7=
EXTT8=
EXTT9=
EXTT10=
EXTT11=
EXTT12=
EXTT13=
EXTT14=
EXTT15=
PLAYORDER=
